<svg width="18" height="23" viewBox="0 0 18 23" fill="none" xmlns="http://www.w3.org/2000/svg">
<path d="M15.75 10.8332H2.25V5.04369H15.75M14.0625 17.7805C13.6149 17.7805 13.1857 17.5975 12.8693 17.2718C12.5528 16.9461 12.375 16.5043 12.375 16.0437C12.375 15.583 12.5528 15.1413 12.8693 14.8156C13.1857 14.4898 13.6149 14.3068 14.0625 14.3068C14.5101 14.3068 14.9393 14.4898 15.2557 14.8156C15.5722 15.1413 15.75 15.583 15.75 16.0437C15.75 16.5043 15.5722 16.9461 15.2557 17.2718C14.9393 17.5975 14.5101 17.7805 14.0625 17.7805ZM3.9375 17.7805C3.48995 17.7805 3.06072 17.5975 2.74426 17.2718C2.42779 16.9461 2.25 16.5043 2.25 16.0437C2.25 15.583 2.42779 15.1413 2.74426 14.8156C3.06072 14.4898 3.48995 14.3068 3.9375 14.3068C4.38505 14.3068 4.81428 14.4898 5.13074 14.8156C5.44721 15.1413 5.625 15.583 5.625 16.0437C5.625 16.5043 5.44721 16.9461 5.13074 17.2718C4.81428 17.5975 4.38505 17.7805 3.9375 17.7805ZM0 16.6226C0 17.6416 0.43875 18.5563 1.125 19.1932V21.2542C1.125 21.5613 1.24353 21.8558 1.45451 22.073C1.66548 22.2901 1.95163 22.4121 2.25 22.4121H3.375C3.67337 22.4121 3.95952 22.2901 4.1705 22.073C4.38147 21.8558 4.5 21.5613 4.5 21.2542V20.0963H13.5V21.2542C13.5 21.5613 13.6185 21.8558 13.8295 22.073C14.0405 22.2901 14.3266 22.4121 14.625 22.4121H15.75C16.0484 22.4121 16.3345 22.2901 16.5455 22.073C16.7565 21.8558 16.875 21.5613 16.875 21.2542V19.1932C17.5613 18.5563 18 17.6416 18 16.6226V5.04369C18 0.991057 13.9725 0.412109 9 0.412109C4.0275 0.412109 0 0.991057 0 5.04369V16.6226Z" fill="#576282"/>
</svg>
