<svg width="22" height="23" viewBox="0 0 22 23" fill="none" xmlns="http://www.w3.org/2000/svg">
<path d="M21.9485 17.0172C21.6921 16.7442 20.7871 15.9368 19.1233 14.8687C17.4472 13.7913 16.2112 13.1195 15.8566 12.9628C15.8253 12.949 15.7909 12.9439 15.757 12.9481C15.7231 12.9524 15.691 12.9658 15.6641 12.9869C15.093 13.4323 14.1314 14.2504 14.0798 14.2946C13.7469 14.58 13.7469 14.58 13.4743 14.4911C12.995 14.3339 11.5061 13.5433 10.2086 12.2429C8.91118 10.9425 8.07978 9.41674 7.92263 8.93794C7.83276 8.6649 7.83276 8.6649 8.11906 8.33194C8.16326 8.28038 8.9819 7.31884 9.42731 6.74821C9.44844 6.72134 9.46184 6.68921 9.46608 6.6553C9.47032 6.62138 9.46524 6.58695 9.45138 6.5557C9.29472 6.20065 8.62291 4.96509 7.54548 3.28903C6.47589 1.62574 5.66953 0.720682 5.39649 0.464338C5.37143 0.440694 5.34046 0.424246 5.30684 0.416727C5.27322 0.409208 5.2382 0.410896 5.20546 0.421614C4.25103 0.749614 3.33015 1.16812 2.45539 1.67141C1.61093 2.16231 0.81145 2.72679 0.0662594 3.35828C0.0402466 3.38039 0.0207441 3.40917 0.00984345 3.44153C-0.00105723 3.47388 -0.00294487 3.50859 0.00438286 3.54194C0.107019 4.02025 0.597613 6.01699 2.11997 8.78276C3.67327 11.6055 4.74973 13.0517 7.03082 15.3249C9.31191 17.5981 10.8038 18.7394 13.6295 20.2927C16.3953 21.8151 18.393 22.3061 18.8704 22.4078C18.9038 22.415 18.9386 22.4131 18.971 22.4022C19.0034 22.3913 19.0323 22.3719 19.0545 22.3459C19.6859 21.6008 20.2502 20.8013 20.7409 19.9568C21.2441 19.082 21.6626 18.1611 21.9907 17.2068C22.0012 17.1743 22.0028 17.1396 21.9954 17.1062C21.988 17.0729 21.9718 17.0422 21.9485 17.0172Z" fill="#576282"/>
</svg>
