<svg width="20" height="19" viewBox="0 0 20 19" fill="none" xmlns="http://www.w3.org/2000/svg">
<path d="M18.772 6.49694L17.404 2.16495C17.2056 1.53423 16.8238 0.985572 16.3131 0.596925C15.8024 0.208278 15.1886 -0.000589217 14.559 1.24848e-06H5.441C4.81139 -0.000589217 4.19761 0.208278 3.68688 0.596925C3.17615 0.985572 2.79445 1.53423 2.596 2.16495L1.228 6.49694C0.864222 6.65762 0.55356 6.92822 0.335067 7.27473C0.116573 7.62124 -4.809e-07 8.0282 0 8.44444V13.7222C0 14.5012 0.404 15.1747 1 15.5409V17.9444C1 18.2244 1.10536 18.4929 1.29289 18.6908C1.48043 18.8888 1.73478 19 2 19H3C3.26522 19 3.51957 18.8888 3.70711 18.6908C3.89464 18.4929 4 18.2244 4 17.9444V15.8333H16V17.9444C16 18.2244 16.1054 18.4929 16.2929 18.6908C16.4804 18.8888 16.7348 19 17 19H18C18.2652 19 18.5196 18.8888 18.7071 18.6908C18.8946 18.4929 19 18.2244 19 17.9444V15.5409C19.3034 15.3573 19.5556 15.0925 19.7311 14.7732C19.9067 14.4539 19.9994 14.0914 20 13.7222V8.44444C20 8.0282 19.8834 7.62124 19.6649 7.27473C19.4464 6.92822 19.1358 6.65762 18.772 6.49694ZM5.441 2.11111H14.558C14.989 2.11111 15.371 2.40033 15.507 2.83311L16.613 6.33333H3.387L4.492 2.83311C4.55835 2.62284 4.68572 2.43995 4.85605 2.31036C5.02638 2.18077 5.23104 2.11106 5.441 2.11111ZM3.5 12.6667C3.30295 12.6666 3.10785 12.6256 2.92582 12.5459C2.7438 12.4662 2.57842 12.3495 2.43913 12.2024C2.29984 12.0553 2.18937 11.8806 2.11403 11.6884C2.03868 11.4962 1.99993 11.2903 2 11.0823C2.00007 10.8743 2.03894 10.6683 2.11441 10.4762C2.18988 10.2841 2.30046 10.1095 2.43984 9.96247C2.57922 9.81545 2.74467 9.69884 2.92675 9.61931C3.10882 9.53977 3.30395 9.49887 3.501 9.49894C3.89896 9.49908 4.28056 9.66609 4.56187 9.96322C4.84317 10.2604 5.00113 10.6633 5.001 11.0833C5.00087 11.5034 4.84265 11.9062 4.56116 12.2031C4.27967 12.5001 3.89796 12.6668 3.5 12.6667ZM16.5 12.6667C16.303 12.6666 16.1078 12.6256 15.9258 12.5459C15.7438 12.4662 15.5784 12.3495 15.4391 12.2024C15.2998 12.0553 15.1894 11.8806 15.114 11.6884C15.0387 11.4962 14.9999 11.2903 15 11.0823C15.0001 10.8743 15.0389 10.6683 15.1144 10.4762C15.1899 10.2841 15.3005 10.1095 15.4398 9.96247C15.5792 9.81545 15.7447 9.69884 15.9267 9.61931C16.1088 9.53977 16.304 9.49887 16.501 9.49894C16.899 9.49908 17.2806 9.66609 17.5619 9.96322C17.8432 10.2604 18.0011 10.6633 18.001 11.0833C18.0009 11.5034 17.8427 11.9062 17.5612 12.2031C17.2797 12.5001 16.898 12.6668 16.5 12.6667Z" fill="#576282"/>
</svg>
