<svg width="224" height="53" viewBox="0 0 224 53" fill="none" xmlns="http://www.w3.org/2000/svg">
<g clip-path="url(#clip0_712_114)">
<path d="M186.28 37.19L189.94 44.51C189.94 44.51 190.86 46.09 189.94 46.22C189.94 46.22 180.02 46.47 178.96 46.34C178.05 46.34 177.55 46.22 177.34 41.7" stroke="white" stroke-width="1.5" stroke-miterlimit="10" stroke-linecap="round"/>
<path d="M201 34.48L205.57 43.63C205.57 43.63 206.48 45.21 205.57 45.34C205.57 45.34 195.21 45.34 194.44 45.34C193.67 45.34 193.18 45.34 192.97 40.83" stroke="white" stroke-width="1.5" stroke-miterlimit="10" stroke-linecap="round"/>
<path d="M202.32 13.82C202.889 13.82 203.35 12.741 203.35 11.41C203.35 10.079 202.889 9 202.32 9C201.751 9 201.29 10.079 201.29 11.41C201.29 12.741 201.751 13.82 202.32 13.82Z" fill="white"/>
<path d="M194.51 13.4C194.51 13.4 196.34 6.53003 201.83 5.85003C201.83 5.85003 208.23 5.17003 210.98 7.91003C210.98 7.91003 213.73 9.74003 212.81 16.14H209.67C209.67 16.14 210.06 18.88 209.15 20.71C206.41 27.11 204.58 29.86 204.58 29.86C200.01 37.18 189.48 42.61 189.48 42.61" stroke="white" stroke-width="1.5" stroke-miterlimit="10" stroke-linecap="round"/>
<path d="M203.72 17.02C203.72 17.61 203.4 18.09 203 18.09C202.6 18.09 202.28 17.61 202.28 17.02C202.28 16.43 203 15.23 203 15.23C203 15.23 203.72 16.43 203.72 17.02Z" fill="white"/>
<path d="M205.54 20.84C205.54 21.48 205.19 22 204.77 22C204.34 22 204 21.48 204 20.84C204 20.2 204.77 18.91 204.77 18.91C204.77 18.91 205.54 20.2 205.54 20.84Z" fill="white"/>
<path d="M170.72 32.61C170.72 32.61 181.43 27.5 184.77 20.91C184.77 20.91 187.19 13.4 189.48 12.54C189.48 12.54 191.28 11.57 191.98 13.86C191.98 13.86 192.68 17.44 191.31 20.91C191.31 20.91 187.19 30.78 178.96 35.36C178.96 35.36 173.47 39.02 171.64 39.02" stroke="white" stroke-width="1.5" stroke-miterlimit="10" stroke-linecap="round"/>
<path d="M170.27 11.11C170.27 11.11 180.31 8.36999 187.19 13.85" stroke="white" stroke-width="1.5" stroke-miterlimit="10" stroke-linecap="round"/>
<path d="M170.72 14.55C170.72 14.55 178.23 12.68 184.77 19.67" stroke="white" stroke-width="1.5" stroke-miterlimit="10" stroke-linecap="round"/>
<path d="M170.72 22.85C170.72 22.85 175.28 23.99 178.72 27.62" stroke="white" stroke-width="1.5" stroke-miterlimit="10" stroke-linecap="round"/>
<path d="M11.0677 9.66798V11.9863H0.9679V9.66798H4.59465V7.05121H7.48686V9.66798H11.0677ZM6.06371 12.9275C8.72639 12.9275 10.6316 14.9933 10.6545 17.8855C10.6316 20.8007 8.72639 22.8666 6.06371 22.8666C3.40104 22.8666 1.44994 20.8007 1.44994 17.8855C1.44994 14.9933 3.40104 12.9275 6.06371 12.9275ZM6.06371 15.3606C4.84714 15.3606 4.0208 16.3017 4.0208 17.8855C4.0208 19.4694 4.84714 20.3875 6.06371 20.3875C7.23437 20.3875 8.06072 19.4694 8.08367 17.8855C8.06072 16.3017 7.23437 15.3606 6.06371 15.3606ZM19.0557 6.47736V27.3656H16.2783V17.3117H14.5797V26.4704H11.8481V6.89053H14.5797V14.9704H16.2783V6.47736H19.0557ZM40.5867 9.07117V11.4584H37.8781V13.6161H40.5867V16.0263H37.8781V18.6889H34.94V6.47736H37.8781V9.07117H40.5867ZM27.1815 7.62507C30.418 7.60211 32.8741 9.71389 32.8741 12.675C32.8741 15.636 30.418 17.7249 27.1815 17.7249C23.922 17.7249 21.443 15.636 21.443 12.675C21.443 9.71389 23.922 7.60211 27.1815 7.62507ZM27.1815 10.0812C25.5288 10.0582 24.3122 11.0682 24.3352 12.675C24.3122 14.3047 25.5288 15.2688 27.1815 15.2688C28.7883 15.2688 30.0048 14.3047 30.0278 12.675C30.0048 11.0682 28.7883 10.0582 27.1815 10.0812ZM31.0378 19.1021C35.3302 19.1021 38.0847 20.663 38.0847 23.2568C38.0847 25.8277 35.3302 27.3656 31.0378 27.3656C26.6535 27.3656 23.8761 25.8277 23.8761 23.2568C23.8761 20.663 26.6535 19.1021 31.0378 19.1021ZM31.0378 21.4205C28.2833 21.4205 26.7913 22.0402 26.8142 23.2568C26.7913 24.4734 28.2833 25.0472 31.0378 25.0472C33.7464 25.0472 35.1925 24.4734 35.1925 23.2568C35.1925 22.0402 33.7464 21.4205 31.0378 21.4205ZM48.2993 10.1959C48.2993 12.4454 49.4699 14.6949 52.2474 15.7508L50.6865 17.9774C48.9075 17.3002 47.6795 16.0607 46.922 14.5113C46.1645 16.3247 44.8561 17.8396 42.905 18.643L41.3212 16.3935C44.2593 15.1081 45.4529 12.5372 45.4529 10.1959V7.73984H48.2993V10.1959ZM59.5697 6.50031V19.2628H56.7923V13.9604H55.0478V18.6201H52.3162V6.86758H55.0478V11.5961H56.7923V6.50031H59.5697ZM52.431 19.5612C56.8382 19.5612 59.6615 21.0303 59.6845 23.4634C59.6615 25.8965 56.8382 27.3656 52.431 27.3656C48.0009 27.3656 45.2005 25.8965 45.2005 23.4634C45.2005 21.0303 48.0009 19.5612 52.431 19.5612ZM52.431 21.7418C49.6995 21.7418 48.1156 22.3386 48.1386 23.4634C48.1156 24.5881 49.6995 25.162 52.431 25.162C55.1396 25.162 56.7234 24.5881 56.7234 23.4634C56.7234 22.3386 55.1396 21.7418 52.431 21.7418ZM80.9859 14.7638V17.0822H72.9061V18.4135H78.6675V23.7618H67.0298V25.0243H79.2184V27.2279H64.1605V21.6959H75.7753V20.6171H64.1376V18.4135H69.9679V17.0822H61.934V14.7638H80.9859ZM78.5757 7.07417V13.662H64.2983V7.07417H78.5757ZM67.1675 9.34662V11.4125H75.6605V9.34662H67.1675ZM99.8542 6.50031V21.7648H96.939V16.8067H92.1645C91.1546 17.8741 89.697 18.5283 88.0787 18.5283C84.911 18.5283 82.5009 16.2329 82.5238 13.134C82.5009 9.98934 84.911 7.71688 88.0787 7.69393C89.697 7.7054 91.1431 8.34812 92.1645 9.41549H96.939V6.50031H99.8542ZM100.359 24.657V26.9983H85.9899V20.2269H88.928V24.657H100.359ZM88.0787 10.3107C86.449 10.3107 85.2783 11.3666 85.3013 13.134C85.2783 14.8786 86.449 15.9344 88.0787 15.9344C89.6166 15.9344 90.8102 14.8786 90.8102 13.134C90.8102 11.3666 89.6166 10.3107 88.0787 10.3107ZM93.427 11.7568C93.5303 12.1929 93.5877 12.652 93.5877 13.134C93.5877 13.5931 93.5303 14.0407 93.427 14.4654H96.939V11.7568H93.427ZM119.388 7.69393V9.57616C119.388 11.5273 119.388 13.662 118.86 16.5772H121.615V18.9414H113.466V27.3885H110.528V18.9414H102.563V16.5772H115.899C116.427 13.8801 116.473 11.8371 116.473 10.0352H104.743V7.69393H119.388ZM140.827 6.47736V22.1091H138.05V6.47736H140.827ZM136.604 6.79872V21.4893H133.826V13.639H131.278V11.2518H133.826V6.79872H136.604ZM141.355 24.657V26.9983H126.665V20.2728H129.603V24.657H141.355ZM129.465 10.6091C129.465 13.0193 130.498 15.4065 133.184 16.646L131.554 18.8955C129.878 18.1036 128.753 16.7952 128.065 15.1999C127.33 17.0133 126.079 18.5397 124.231 19.4005L122.625 17.174C125.471 15.7967 126.619 13.0881 126.619 10.6091V7.87756H129.465V10.6091ZM160.82 6.47736V27.4115H157.928V16.2099H154.255V13.8456H157.928V6.47736H160.82ZM153.911 8.22187V10.5861H147.071V14.0522H153.154V16.3476H147.071V20.2957C149.963 20.2728 152.281 20.1695 154.875 19.7678L155.174 22.1091C152.121 22.5682 149.389 22.683 145.808 22.683H144.156V8.22187H153.911Z" fill="white"/>
<path d="M0.898438 35.5044H2.11133L4.85156 42.1977H4.95264L7.69287 35.5044H8.90576V43.6352H7.95117V37.4922H7.87256L5.3457 43.6352H4.44727L1.92041 37.4922H1.85303V43.6352H0.898438V35.5044ZM10.1721 41.9057C10.1721 40.5019 11.4075 40.1875 12.4631 40.1089C12.8506 40.0808 13.8389 40.0302 14.114 40.019V39.5249C14.114 38.75 13.6536 38.3008 12.7327 38.3008C11.9578 38.3008 11.4973 38.6601 11.3625 39.1206H10.3518C10.4753 38.1435 11.4299 37.4585 12.7776 37.4585C13.5749 37.4585 15.0686 37.6943 15.0686 39.6147V43.6352H14.114V42.8042H14.0691C13.8669 43.2197 13.3054 43.7812 12.2497 43.7812C11.093 43.7812 10.1721 43.0962 10.1721 41.9057ZM11.1379 41.9507C11.1379 42.5908 11.677 42.9165 12.4182 42.9165C13.5076 42.9165 14.114 42.1865 14.114 41.4228V40.8051L12.5754 40.9174C11.6995 40.9736 11.1379 41.2881 11.1379 41.9507ZM16.5034 43.6352V37.5371H17.4355V38.4692H17.5029C17.7275 37.8515 18.3564 37.436 19.0752 37.436C19.2212 37.436 19.4682 37.4472 19.5805 37.4585V38.4355C19.5132 38.4131 19.2436 38.3681 18.9966 38.3681C18.1206 38.3681 17.4692 38.9746 17.4692 39.7944V43.6352H16.5034ZM20.4089 43.6352V37.5371H21.3747V43.6352H20.4089ZM20.8918 36.5263C20.5212 36.5263 20.218 36.2456 20.218 35.8862C20.218 35.5268 20.5212 35.2461 20.8918 35.2461C21.2624 35.2461 21.5769 35.5268 21.5769 35.8862C21.5769 36.2456 21.2624 36.5263 20.8918 36.5263ZM23.7641 39.9741V43.6352H22.7983V37.5371H23.7304V38.4917H23.809C24.101 37.874 24.6626 37.4585 25.5947 37.4585C26.83 37.4585 27.6499 38.2109 27.6499 39.7607V43.6352H26.684V39.8281C26.684 38.8847 26.1674 38.3232 25.3027 38.3232C24.4155 38.3232 23.7641 38.9184 23.7641 39.9741ZM31.6452 43.7588C29.882 43.7588 28.7927 42.5122 28.7927 40.6367C28.7927 38.7612 29.8933 37.4585 31.5554 37.4585C32.8356 37.4585 34.1833 38.2446 34.1833 40.5019V40.9062H29.7585C29.8034 42.1977 30.5559 42.9052 31.6452 42.9052C32.3752 42.9052 32.8356 42.5908 33.0603 42.209H34.0935C33.8015 43.1299 32.903 43.7588 31.6452 43.7588ZM29.7697 40.0864H33.2062C33.2062 39.0644 32.5549 38.312 31.5554 38.312C30.4997 38.312 29.8259 39.143 29.7697 40.0864ZM38.2209 43.6352V35.5044H41.0734C42.7804 35.5044 43.5778 36.459 43.5778 37.6606C43.5778 38.705 42.9601 39.1767 42.2526 39.3676V39.4463C43.0051 39.4912 43.9035 40.1875 43.9035 41.479C43.9035 42.7031 43.0949 43.6352 41.1745 43.6352H38.2209ZM41.1633 42.7368C42.4323 42.7368 42.9264 42.1753 42.9264 41.4677C42.9264 40.6367 42.2638 39.9404 41.2194 39.9404H39.2316V42.7368H41.1633ZM41.0397 39.0644C41.9157 39.0644 42.612 38.5254 42.612 37.6718C42.612 36.9643 42.1403 36.4028 41.0734 36.4028H39.2316V39.0644H41.0397ZM45.1025 43.6352V37.5371H46.0683V43.6352H45.1025ZM45.5854 36.5263C45.2148 36.5263 44.9115 36.2456 44.9115 35.8862C44.9115 35.5268 45.2148 35.2461 45.5854 35.2461C45.956 35.2461 46.2704 35.5268 46.2704 35.8862C46.2704 36.2456 45.956 36.5263 45.5854 36.5263ZM49.985 43.7588C48.3229 43.7588 47.1999 42.5122 47.1999 40.6142C47.1999 38.7163 48.3229 37.4585 49.985 37.4585C51.6359 37.4585 52.7477 38.7163 52.7477 40.6142C52.7477 42.5122 51.6359 43.7588 49.985 43.7588ZM49.985 42.9052C51.2091 42.9052 51.7819 41.8271 51.7819 40.6142C51.7819 39.4013 51.2091 38.312 49.985 38.312C48.7384 38.312 48.1657 39.4013 48.1657 40.6142C48.1657 41.8271 48.7384 42.9052 49.985 42.9052ZM54.8676 35.5044V43.6352H53.9018V35.5044H54.8676ZM58.7843 43.7588C57.1222 43.7588 55.9992 42.5122 55.9992 40.6142C55.9992 38.7163 57.1222 37.4585 58.7843 37.4585C60.4352 37.4585 61.547 38.7163 61.547 40.6142C61.547 42.5122 60.4352 43.7588 58.7843 43.7588ZM58.7843 42.9052C60.0084 42.9052 60.5812 41.8271 60.5812 40.6142C60.5812 39.4013 60.0084 38.312 58.7843 38.312C57.5377 38.312 56.965 39.4013 56.965 40.6142C56.965 41.8271 57.5377 42.9052 58.7843 42.9052ZM65.1718 46.0498C63.7006 46.0498 62.7011 45.4096 62.5887 44.2754H63.5995C63.7343 44.893 64.307 45.2075 65.1718 45.2075C66.2162 45.2075 66.8563 44.7583 66.8563 43.7475V42.5122H66.7777C66.5756 42.8491 66.1825 43.5454 65.0033 43.5454C63.5209 43.5454 62.4091 42.4223 62.4091 40.5019C62.4091 38.6264 63.4872 37.4585 65.0145 37.4585C66.1937 37.4585 66.5756 38.1772 66.8002 38.5029H66.8788V37.5371H67.8221V43.8037C67.8221 45.3759 66.6542 46.0498 65.1718 46.0498ZM65.1381 42.6806C66.2499 42.6806 66.8788 41.8833 66.8788 40.5356C66.8788 39.2329 66.2723 38.3232 65.1381 38.3232C63.9701 38.3232 63.3861 39.3115 63.3861 40.5356C63.3861 41.8047 63.9813 42.6806 65.1381 42.6806ZM69.8634 45.9262C69.65 45.9262 69.4479 45.915 69.3243 45.9038V45.039C69.4254 45.0503 69.65 45.0615 69.796 45.0615C70.1891 45.0615 70.5148 45.0278 70.8404 44.1406L71.0201 43.6801L68.7628 37.5371H69.8185L71.4806 42.3774H71.548L73.2101 37.5371H74.2657L71.6827 44.5112C71.3234 45.4658 70.7281 45.9262 69.8634 45.9262ZM78.1124 43.6352V35.5044H80.8751C82.7843 35.5044 83.649 36.56 83.649 38.0088C83.649 39.0813 83.1661 39.9292 82.1329 40.2885L83.9635 43.6352H82.7843L81.0885 40.4682L80.8863 40.4795H79.1231V43.6352H78.1124ZM79.1231 39.5586H80.8414C82.1329 39.5586 82.6495 38.9746 82.6495 38.0088C82.6495 37.0317 82.1329 36.4028 80.8302 36.4028H79.1231V39.5586ZM87.3636 43.7588C85.6004 43.7588 84.5111 42.5122 84.5111 40.6367C84.5111 38.7612 85.6117 37.4585 87.2738 37.4585C88.554 37.4585 89.9017 38.2446 89.9017 40.5019V40.9062H85.4769C85.5218 42.1977 86.2743 42.9052 87.3636 42.9052C88.0936 42.9052 88.554 42.5908 88.7787 42.209H89.8119C89.5199 43.1299 88.6214 43.7588 87.3636 43.7588ZM85.4881 40.0864H88.9247C88.9247 39.0644 88.2733 38.312 87.2738 38.312C86.2181 38.312 85.5443 39.143 85.4881 40.0864ZM94.4361 39.1206C94.3013 38.6152 93.9195 38.2783 93.2008 38.2783C92.4483 38.2783 91.9093 38.6826 91.9093 39.1992C91.9093 39.6035 92.2349 39.8842 92.9537 40.0527L93.8634 40.2773C94.9527 40.5356 95.4918 41.0747 95.4918 41.9282C95.4918 42.9839 94.627 43.7588 93.0997 43.7588C91.7296 43.7588 90.9097 43.1523 90.7525 42.0405H91.7633C91.8756 42.6357 92.3136 42.9165 93.0772 42.9165C93.942 42.9165 94.4923 42.5571 94.4923 41.9843C94.4923 41.5576 94.189 41.2656 93.4928 41.1084L92.5719 40.895C91.505 40.6479 90.9434 40.0639 90.9434 39.2553C90.9434 38.2109 91.8531 37.4585 93.2008 37.4585C94.4586 37.4585 95.2559 38.1323 95.3795 39.1206H94.4361ZM99.1951 43.7588C97.432 43.7588 96.3426 42.5122 96.3426 40.6367C96.3426 38.7612 97.4432 37.4585 99.1053 37.4585C100.386 37.4585 101.733 38.2446 101.733 40.5019V40.9062H97.3084C97.3533 42.1977 98.1058 42.9052 99.1951 42.9052C99.9251 42.9052 100.386 42.5908 100.61 42.209H101.643C101.351 43.1299 100.453 43.7588 99.1951 43.7588ZM97.3196 40.0864H100.756C100.756 39.0644 100.105 38.312 99.1053 38.312C98.0496 38.312 97.3758 39.143 97.3196 40.0864ZM102.584 41.9057C102.584 40.5019 103.819 40.1875 104.875 40.1089C105.263 40.0808 106.251 40.0302 106.526 40.019V39.5249C106.526 38.75 106.065 38.3008 105.145 38.3008C104.37 38.3008 103.909 38.6601 103.774 39.1206H102.764C102.887 38.1435 103.842 37.4585 105.19 37.4585C105.987 37.4585 107.481 37.6943 107.481 39.6147V43.6352H106.526V42.8042H106.481C106.279 43.2197 105.717 43.7812 104.662 43.7812C103.505 43.7812 102.584 43.0962 102.584 41.9057ZM103.55 41.9507C103.55 42.5908 104.089 42.9165 104.83 42.9165C105.919 42.9165 106.526 42.1865 106.526 41.4228V40.8051L104.987 40.9174C104.111 40.9736 103.55 41.2881 103.55 41.9507ZM108.915 43.6352V37.5371H109.847V38.4692H109.915C110.139 37.8515 110.768 37.436 111.487 37.436C111.633 37.436 111.88 37.4472 111.992 37.4585V38.4355C111.925 38.4131 111.656 38.3681 111.408 38.3681C110.533 38.3681 109.881 38.9746 109.881 39.7944V43.6352H108.915ZM115.112 43.7588C113.382 43.7588 112.327 42.4448 112.327 40.6142C112.327 38.7612 113.427 37.4585 115.089 37.4585C116.392 37.4585 117.358 38.2221 117.515 39.3789H116.549C116.415 38.8174 115.92 38.312 115.112 38.312C114.022 38.312 113.293 39.2104 113.293 40.5805C113.293 41.9956 114 42.894 115.112 42.894C115.831 42.894 116.381 42.5122 116.549 41.8383H117.515C117.358 42.9277 116.471 43.7588 115.112 43.7588ZM119.556 39.9741V43.6352H118.591V35.5044H119.556V38.4917H119.635C119.916 37.8628 120.466 37.4585 121.432 37.4585C122.678 37.4585 123.51 38.1997 123.51 39.7607V43.6352H122.544V39.8281C122.544 38.8735 122.016 38.3232 121.14 38.3232C120.23 38.3232 119.556 38.9184 119.556 39.9741ZM133.387 38.0649C133.151 36.9419 132.185 36.3354 131.118 36.3354C129.647 36.3354 128.502 37.4697 128.502 39.5698C128.502 41.6699 129.647 42.8042 131.118 42.8042C132.185 42.8042 133.14 42.1977 133.387 41.0859H134.398C134.106 42.748 132.769 43.7475 131.118 43.7475C129.03 43.7475 127.525 42.1416 127.525 39.5698C127.525 36.998 129.03 35.3921 131.118 35.3921C132.758 35.3921 134.094 36.3803 134.398 38.0649H133.387ZM138.135 43.7588C136.372 43.7588 135.282 42.5122 135.282 40.6367C135.282 38.7612 136.383 37.4585 138.045 37.4585C139.325 37.4585 140.673 38.2446 140.673 40.5019V40.9062H136.248C136.293 42.1977 137.045 42.9052 138.135 42.9052C138.865 42.9052 139.325 42.5908 139.55 42.209H140.583C140.291 43.1299 139.393 43.7588 138.135 43.7588ZM136.259 40.0864H139.696C139.696 39.0644 139.044 38.312 138.045 38.312C136.989 38.312 136.315 39.143 136.259 40.0864ZM142.781 39.9741V43.6352H141.816V37.5371H142.748V38.4917H142.826C143.118 37.874 143.68 37.4585 144.612 37.4585C145.847 37.4585 146.667 38.2109 146.667 39.7607V43.6352H145.701V39.8281C145.701 38.8847 145.185 38.3232 144.32 38.3232C143.433 38.3232 142.781 38.9184 142.781 39.9741ZM150.764 37.5371V38.3457H149.483V41.8833C149.483 42.6694 149.865 42.7929 150.281 42.7929C150.46 42.7929 150.708 42.7817 150.854 42.7705V43.6689C150.708 43.6914 150.46 43.7138 150.18 43.7138C149.371 43.7138 148.506 43.2085 148.506 42.1303V38.3457H147.585V37.5371H148.506V36.0771H149.483V37.5371H150.764ZM154.388 43.7588C152.625 43.7588 151.536 42.5122 151.536 40.6367C151.536 38.7612 152.636 37.4585 154.299 37.4585C155.579 37.4585 156.926 38.2446 156.926 40.5019V40.9062H152.502C152.547 42.1977 153.299 42.9052 154.388 42.9052C155.118 42.9052 155.579 42.5908 155.803 42.209H156.837C156.545 43.1299 155.646 43.7588 154.388 43.7588ZM152.513 40.0864H155.949C155.949 39.0644 155.298 38.312 154.299 38.312C153.243 38.312 152.569 39.143 152.513 40.0864ZM158.069 43.6352V37.5371H159.001V38.4692H159.069C159.293 37.8515 159.922 37.436 160.641 37.436C160.787 37.436 161.034 37.4472 161.146 37.4585V38.4355C161.079 38.4131 160.81 38.3681 160.562 38.3681C159.686 38.3681 159.035 38.9746 159.035 39.7944V43.6352H158.069Z" fill="white"/>
</g>
<defs>
<clipPath id="clip0_712_114">
<rect width="223.73" height="52.73" fill="white"/>
</clipPath>
</defs>
</svg>
