<svg width="31" height="28" viewBox="0 0 31 28" fill="none" xmlns="http://www.w3.org/2000/svg">
<path fill-rule="evenodd" clip-rule="evenodd" d="M0 10C0 9.46957 0.204129 8.96086 0.567481 8.58579C0.930832 8.21071 1.42364 8 1.9375 8H21.9092C22.4231 8 22.9159 8.21071 23.2793 8.58579C23.6426 8.96086 23.8467 9.46957 23.8467 10C23.8467 10.5304 23.6426 11.0391 23.2793 11.4142C22.9159 11.7893 22.4231 12 21.9092 12H1.9375C1.42364 12 0.930832 11.7893 0.567481 11.4142C0.204129 11.0391 0 10.5304 0 10ZM0 2C0 1.46957 0.204129 0.960859 0.567481 0.585786C0.930832 0.210714 1.42364 0 1.9375 0H29.0625C29.5764 0 30.0692 0.210714 30.4325 0.585786C30.7959 0.960859 31 1.46957 31 2C31 2.53043 30.7959 3.03914 30.4325 3.41421C30.0692 3.78929 29.5764 4 29.0625 4H1.9375C1.42364 4 0.930832 3.78929 0.567481 3.41421C0.204129 3.03914 0 2.53043 0 2ZM0 18C0 17.4696 0.204129 16.9609 0.567481 16.5858C0.930832 16.2107 1.42364 16 1.9375 16H29.0625C29.5764 16 30.0692 16.2107 30.4325 16.5858C30.7959 16.9609 31 17.4696 31 18C31 18.5304 30.7959 19.0391 30.4325 19.4142C30.0692 19.7893 29.5764 20 29.0625 20H1.9375C1.42364 20 0.930832 19.7893 0.567481 19.4142C0.204129 19.0391 0 18.5304 0 18ZM0 26C0 25.4696 0.204129 24.9609 0.567481 24.5858C0.930832 24.2107 1.42364 24 1.9375 24H21.9092C22.4231 24 22.9159 24.2107 23.2793 24.5858C23.6426 24.9609 23.8467 25.4696 23.8467 26C23.8467 26.5304 23.6426 27.0391 23.2793 27.4142C22.9159 27.7893 22.4231 28 21.9092 28H1.9375C1.42364 28 0.930832 27.7893 0.567481 27.4142C0.204129 27.0391 0 26.5304 0 26Z" fill="#F8F8F8"/>
</svg>
