<svg width="18" height="23" viewBox="0 0 18 23" fill="none" xmlns="http://www.w3.org/2000/svg">
<path d="M9 0.412109C4.5 0.412109 0 0.991057 0 5.04369V16.0437C0 18.2784 1.76625 20.0963 3.9375 20.0963L2.25 21.8332V22.4121H4.75875L7.00875 20.0963H11.25L13.5 22.4121H15.75V21.8332L14.0625 20.0963C16.2337 20.0963 18 18.2784 18 16.0437V5.04369C18 0.991057 13.9725 0.412109 9 0.412109ZM3.9375 17.7805C3.00375 17.7805 2.25 17.0047 2.25 16.0437C2.25 15.0826 3.00375 14.3068 3.9375 14.3068C4.87125 14.3068 5.625 15.0826 5.625 16.0437C5.625 17.0047 4.87125 17.7805 3.9375 17.7805ZM7.875 9.67527H2.25V5.04369H7.875V9.67527ZM10.125 9.67527V5.04369H15.75V9.67527H10.125ZM14.0625 17.7805C13.1288 17.7805 12.375 17.0047 12.375 16.0437C12.375 15.0826 13.1288 14.3068 14.0625 14.3068C14.9962 14.3068 15.75 15.0826 15.75 16.0437C15.75 17.0047 14.9962 17.7805 14.0625 17.7805Z" fill="#576282"/>
</svg>
