<svg width="146" height="132" viewBox="0 0 146 132" fill="none" xmlns="http://www.w3.org/2000/svg">
<path d="M94.0197 2.1948H93.8706H93.4235C81.3022 1.97141 77.4771 18.1302 87.9839 23.5909C93.2 26.3212 97.4971 29.8459 100.602 34.1152C98.4409 34.835 96.5035 36.0761 94.9635 37.7391C93.3987 39.4021 92.281 41.4127 91.7097 43.5969C82.7181 44.8628 74.5958 49.5541 69.0071 56.6778C67.5416 55.4616 65.8774 54.5184 64.0642 53.9475C64.0393 50.6462 63.5177 47.3946 62.5242 44.2423C64.0642 41.636 64.71 38.583 64.3374 35.5796C63.9648 32.5762 62.5987 29.7714 60.4626 27.6119C58.3264 25.4525 55.5445 24.0625 52.5142 23.6405C49.5087 23.2434 46.4287 23.8391 43.7958 25.3532C40.4426 24.1618 36.8906 23.5412 33.3139 23.5412C29.6377 23.5412 26.1106 24.1866 22.8319 25.3532C20.199 23.8391 17.1687 23.2434 14.1632 23.6405C11.1577 24.0377 8.37579 25.4028 6.23967 27.5375C4.10354 29.6721 2.71257 32.4521 2.31515 35.4307C1.96741 38.4093 2.56354 41.4375 4.05386 44.0686C2.8616 47.4194 2.24063 50.9689 2.24063 54.5184V85.1728C2.24063 109.87 22.36 129.926 47.1242 129.926H98.6397C123.429 129.926 143.523 109.87 143.523 85.1232V52.0611C143.548 24.3603 121.119 3.13801 94.0197 2.1948ZM92.0822 15.7473C89.6977 14.5062 90.6168 10.9071 93.3242 10.9816H93.7216L94.5413 11.0312H94.5661C97.5468 11.1802 100.527 11.6518 103.409 12.3964C121.417 17.0877 134.73 32.7748 134.73 52.0362V85.1232C134.73 104.98 118.585 121.114 98.6645 121.114H47.149C27.2532 121.114 11.0832 104.98 11.0832 85.1728V54.5184C11.0832 53.0539 11.2322 51.6143 11.5055 50.2243C12.0768 47.2953 13.2442 44.5153 14.9332 42.058C13.6913 41.785 12.6232 41.0403 11.9277 39.9978C11.1577 38.9553 10.81 37.6398 11.0087 36.3491C11.2074 35.0584 11.9029 33.8918 12.9461 33.1223C13.9893 32.3528 15.3058 32.0053 16.6222 32.2039C17.9387 32.4025 19.0813 33.0975 19.8761 34.14C20.3481 34.7357 20.6958 35.4059 20.8697 36.1753C24.5458 33.6684 28.9174 32.328 33.3635 32.3528C37.8097 32.3528 42.1813 33.6684 45.8574 36.1753C46.1306 34.9591 46.8509 33.8918 47.8693 33.1968C48.9126 32.4025 50.229 32.0798 51.5206 32.2535C52.8122 32.4273 53.9797 33.1223 54.7745 34.1648C55.5693 35.2073 55.8922 36.5228 55.7184 37.8135C55.5445 39.1043 54.849 40.2709 53.8058 41.0652C53.2097 41.5616 52.5142 41.8843 51.769 42.058C52.2658 42.7778 52.7129 43.5473 53.0855 44.3416C54.0045 46.2032 54.6006 48.2137 54.9235 50.3236C55.1471 51.7136 55.2464 53.1284 55.2464 54.5432V60.1528C54.2032 59.8798 53.1351 59.7309 52.0671 59.7309H47.1987C46.528 59.7309 45.8574 59.855 45.2116 60.128C44.5906 60.3762 44.0193 60.7734 43.5226 61.245C43.0506 61.7166 42.6532 62.2875 42.4048 62.908C42.1564 63.5286 42.0074 64.1987 42.0074 64.8689V69.7091C42.0074 71.0246 42.2558 72.365 42.6532 73.5316C43.7958 72.7869 44.7148 71.7693 45.2116 70.4537C45.758 69.1382 46.8013 68.0709 48.1177 67.5C49.4342 66.9291 50.8997 66.9043 52.2409 67.4007C53.5822 67.8971 54.6751 68.9148 55.2713 70.2055C55.8922 71.4962 55.9668 72.9607 55.4948 74.3259C55.1222 75.3187 54.6503 76.2619 54.079 77.1803C52.8619 78.9427 51.3468 80.4568 49.608 81.673C46.9006 83.5843 43.8703 84.7261 41.2374 84.7261H32.0222L32.991 87.6302C36.5429 98.2289 46.4535 103.615 57.7055 103.615H75.0926V103.516C75.6887 103.516 76.2351 103.292 76.6574 102.871C77.0797 102.449 77.3032 101.902 77.3032 101.307V90.2861C77.3032 83.8573 79.8616 77.7016 84.4071 73.1593C88.9526 68.6169 95.1374 66.0603 101.571 66.0603H103.781C104.377 66.0603 104.924 65.8369 105.346 65.415C105.768 64.993 105.992 64.4469 105.992 63.8512V58.3409C105.992 57.4721 106.34 56.6282 106.961 56.0077C107.582 55.3871 108.426 55.0396 109.295 55.0396C110.165 55.0396 111.009 55.3871 111.63 56.0077C112.251 56.6282 112.599 57.4721 112.599 58.3409V63.8512C112.599 64.4469 112.823 64.993 113.245 65.415C113.667 65.8369 114.214 66.0603 114.81 66.0603C115.406 66.0603 115.952 65.8369 116.375 65.415C116.797 64.993 117.02 64.4469 117.02 63.8512V58.3409C117.02 56.3055 116.225 54.4687 114.934 53.0787V51.3412C114.934 48.8343 114.71 46.3521 114.238 43.8948C113.642 40.7673 112.674 37.7391 111.307 34.8846C108.625 29.2502 104.576 24.4348 99.5587 20.5378C97.6958 19.0982 95.7335 17.7827 93.6968 16.6409L93.498 16.5416L93.2993 16.4423L93.1255 16.343L92.0822 15.7473ZM109.966 50.6711C108.898 50.5718 107.83 50.7207 106.812 51.0434C105.793 51.3909 104.874 51.9369 104.079 52.6568C103.284 53.3766 102.664 54.2453 102.241 55.2382C101.819 56.2062 101.595 57.2735 101.595 58.3409V61.6421C97.2239 61.6421 92.9268 62.635 89.0022 64.5462C85.0777 66.4575 81.65 69.2375 78.9674 72.6628H70.9942C71.5655 69.9573 72.5838 67.3759 73.9748 64.9682C76.2848 61.0216 79.5884 57.77 83.5377 55.4864C87.5119 53.2277 91.9829 52.0362 96.578 52.0362H100.055V47.0968C100.055 46.4514 100.18 45.8061 100.428 45.2103C100.676 44.6146 101.049 44.0686 101.496 43.5969C101.943 43.1253 102.49 42.7778 103.111 42.5296C103.707 42.2814 104.353 42.1573 104.998 42.1573C105.644 42.1573 106.29 42.2814 106.886 42.5296C107.482 42.7778 108.029 43.1502 108.501 43.5969C108.973 44.0437 109.32 44.5898 109.569 45.2103C109.817 45.8061 109.941 46.4514 109.941 47.0968V50.6711H109.966ZM76.1109 77.0811C73.9748 81.1518 72.8819 85.6941 72.8819 90.2861V99.1969H57.7055C49.0368 99.1969 41.9329 95.6475 38.4306 89.1194H41.2374C45.0377 89.1194 48.9374 87.5309 52.1664 85.2473C53.6319 84.2048 54.9732 83.0134 56.1406 81.673H58.8729C60.1397 81.673 61.3816 81.2014 62.3255 80.3575C63.2693 79.5136 63.8655 78.3469 64.0145 77.0811H76.1109ZM64.0393 71.67C64.0393 67.6986 62.1019 64.1987 59.1461 62.0144H59.469C60.2639 62.0144 61.0339 62.1634 61.779 62.4612C62.4993 62.7591 63.17 63.2059 63.7413 63.7519C64.2877 64.298 64.7348 64.9682 65.0329 65.688C65.3309 66.4078 65.48 67.2021 65.48 67.9716V68.2446C65.4551 69.0389 65.2564 69.8332 64.9087 70.553L64.8839 70.6275C64.6603 71.0743 64.3871 71.4714 64.089 71.8437V71.67H64.0393Z" stroke="#F7F8F8" stroke-width="3" stroke-miterlimit="10"/>
<path d="M38.2573 50.1995L35.6989 47.6677C35.0034 46.9975 34.0844 46.6004 33.1156 46.6252C32.1718 46.6252 31.2279 46.9727 30.5324 47.6677L27.974 50.1995C27.6263 50.5222 27.3779 50.9193 27.1792 51.3413C27.0053 51.7633 26.906 52.2349 26.906 52.7065C26.906 53.1781 27.0053 53.6497 27.1792 54.0717C27.3531 54.4936 27.6263 54.8908 27.974 55.2134C29.3898 56.6283 31.6502 56.6283 33.0908 55.2134L33.1156 55.1886L33.1405 55.2134C34.5563 56.6283 36.8166 56.6283 38.2573 55.2134C39.6482 53.8483 39.6482 51.6143 38.2573 50.1995ZM33.0411 52.3838C32.4947 52.3838 31.9482 52.1604 31.5756 51.7633C31.1782 51.3661 30.9547 50.82 30.9547 50.2491C30.9547 49.6783 31.1782 49.1322 31.5756 48.735C31.9731 48.3379 32.4947 48.1145 33.0411 48.1145C33.5876 48.1145 34.134 48.3379 34.5066 48.735C34.904 49.1322 35.1276 49.6783 35.1276 50.2491C35.1276 50.82 34.904 51.3661 34.5066 51.7633C34.134 52.1604 33.5876 52.3838 33.0411 52.3838ZM28.7192 46.6252C28.7192 47.4692 28.3963 48.2883 27.8002 48.9088C27.204 49.5045 26.4092 49.852 25.5647 49.852C24.7202 49.852 23.9253 49.5045 23.3292 48.9088C22.7331 48.3131 22.4102 47.494 22.4102 46.6252C22.4102 45.7813 22.7331 44.9622 23.3292 44.3416C23.9253 43.7459 24.7202 43.3984 25.5647 43.3984C26.4092 43.3984 27.204 43.7459 27.8002 44.3416C28.3714 44.9622 28.7192 45.7813 28.7192 46.6252ZM43.8211 46.6252C43.8211 47.4692 43.4982 48.2883 42.9021 48.9088C42.306 49.5045 41.5111 49.852 40.6666 49.852C39.8221 49.852 39.0273 49.5045 38.4311 48.9088C37.835 48.3131 37.5121 47.494 37.5121 46.6252C37.5121 45.7813 37.835 44.9622 38.4311 44.3416C39.0273 43.7459 39.8221 43.3984 40.6666 43.3984C41.5111 43.3984 42.306 43.7459 42.9021 44.3416C43.4982 44.9622 43.8211 45.7813 43.8211 46.6252Z" fill="white" fill-opacity="0.8"/>
</svg>
