<svg width="164" height="133" viewBox="0 0 164 133" fill="none" xmlns="http://www.w3.org/2000/svg">
<path d="M140.464 0.659346C137.998 1.61181 135.601 3.79767 133.615 6.29874C135.19 13.0139 132.04 20.2807 129.54 25.4884C136.183 25.2829 147.69 27.6469 152.964 24.7004C159.265 21.1715 164.949 8.86832 163.169 2.87262C156.731 1.24521 145.943 -1.18048 140.464 0.659346ZM89.3358 3.5921L88.7536 7.90901C92.9658 8.90258 96.767 10.4443 100.294 12.8769C100.842 9.03963 101.835 5.68203 104.506 3.52358C99.4724 3.18097 94.1986 3.21523 89.3358 3.5921ZM155.532 4.27733C150.703 7.01822 145.978 8.97111 143.752 11.9518C141.56 10.0332 140.156 7.84049 140.807 4.79124C145.635 2.70131 150.806 3.18097 155.532 4.27733ZM83.0347 4.27733C79.3362 4.75698 75.6719 5.4422 72.0077 6.36726C75.7062 6.40152 79.5074 6.53856 82.658 6.88117L83.0347 4.27733ZM108.102 8.59423C105.26 14.4221 107.041 18.3964 109.335 22.9531C112.349 17.8139 114.986 12.3287 117.211 6.60709C114.129 5.99039 110.157 6.43578 108.102 8.59423ZM123.889 6.47004C103.924 61.0858 48.7551 92.332 0.5 88.666C0.910944 101.206 21.1979 95.8951 28.564 94.5247C46.4264 91.0986 69.4735 83.2185 85.9798 68.9659C99.2327 57.5569 111.424 43.9895 119.609 30.8674C122.143 25.2486 129.506 14.7989 127.828 8.35441C127.28 6.81265 125.396 6.81265 123.889 6.47004ZM61.6313 13.1201C65.2956 15.1415 68.4462 17.6426 71.4597 20.0409C72.6241 17.5398 74.4048 15.0388 77.0417 12.6371C72.0077 12.4315 66.2544 12.7056 61.6313 13.1201ZM86.151 13.6341C79.8156 17.2657 77.4184 20.5548 76.4253 24.0152C79.8841 27.4413 83.6511 32.2036 86.7332 36.4177C86.4249 28.2978 93.5137 21.3086 99.3354 19.9724C95.5342 16.4092 91.4933 14.7304 86.151 13.6341ZM51.4262 15.6897C50.9468 20.0752 50.4674 24.4948 51.0838 28.6404C54.7138 25.043 59.9191 22.9874 64.371 22.4049C60.3643 19.3899 56.3918 16.8203 51.4262 15.6897ZM44.8511 19.1844C40.6732 24.1522 37.0774 30.0109 33.9611 35.6983C37.1459 34.225 40.9129 33.1629 45.7073 32.9231C44.3717 28.1951 44.4744 23.5013 44.8511 19.1844ZM95.9109 28.0237C91.4933 32.0666 92.9658 38.7818 94.0959 43.5783C99.1985 38.0623 103.822 31.998 107.828 25.4884C103.856 25.5569 98.9587 25.6597 95.9109 28.0237ZM52.5563 36.7261C52.3851 42.9959 54.0974 50.5333 56.2206 56.529C61.4943 45.2229 70.4324 39.2957 81.8361 40.2207C78.891 36.2464 75.398 31.8267 72.4529 28.7775C64.0285 28.0923 56.8712 29.1886 52.5563 36.7261ZM30.5366 29.1544C26.7079 32.6833 23.2766 36.3835 20.2253 40.1865C21.5198 40.3235 22.8108 40.7004 24.0608 41.2828C25.9682 37.5484 28.1189 33.3685 30.5366 29.1544ZM46.3922 38.9873C36.8035 39.1586 33.105 42.8246 28.1189 47.2785C26.4511 54.3021 25.8587 61.2571 26.3621 68.0065C32.4201 60.2978 41.5293 55.9123 50.3989 58.6532C48.3099 52.8288 46.5976 45.771 46.3922 38.9873ZM69.1995 49.2999C64.1997 52.8288 60.8437 59.3042 59.7821 66.7046L59.3026 69.9252C70.1584 64.4091 80.3635 57.18 89.4043 48.3749C82.4182 45.634 75.124 45.1886 69.1995 49.2999ZM14.5063 48.0665C10.8524 53.6854 7.95863 59.4755 5.76351 65.2999C11.8592 63.7239 17.2631 67.1843 20.4856 71.3299C19.5541 63.3813 20.0301 55.1929 21.8588 47.0387C19.2562 45.5655 16.5405 46.5933 14.5063 48.0665ZM116.116 46.9359C113.102 50.9445 109.883 54.8502 106.493 58.5847C108.89 64.5119 108.582 71.4327 105.979 76.6746C102.76 83.15 97.4177 88.2206 93.3425 97.5054C91.6302 101.582 89.4728 118.919 94.5753 119.193C110.739 109.908 128.923 88.3234 129.848 70.4048C127.588 60.7774 122.211 53.7882 116.116 46.9359ZM38.5157 65.4027C33.6187 67.8352 29.0298 73.2485 26.6258 81.0601C36.872 79.2099 47.1456 75.8524 56.974 71.09C51.3235 65.1971 45.4333 61.9423 38.5157 65.4027ZM8.5819 70.9187C2.60951 72.3577 2.02734 77.3256 1.21915 82.499C7.08538 82.9444 13.0783 82.8074 19.1089 82.1564C17.7733 77.0858 13.9002 70.953 8.5819 70.9187ZM43.6525 97.1628C40.365 98.1221 37.1459 98.9786 33.9954 99.6981C31.2557 104.632 26.9785 111.381 26.3312 117.103C26.5847 122.927 28.0504 128.032 29.9544 133C45.81 121.797 47.6935 110.593 43.6525 97.1628Z" fill="#F8F8F8"/>
</svg>
