<svg width="162" height="135" viewBox="0 0 162 135" fill="none" xmlns="http://www.w3.org/2000/svg">
<path d="M78.9417 53.1473C78.9417 50.2798 76.6845 47.9713 73.9008 47.9713C71.1171 47.9713 68.8652 50.2798 68.8652 53.1473C68.8652 54.3677 69.2945 55.4801 69.9884 56.3684C72.621 55.4531 76.4577 54.2759 78.831 54.2192C78.9039 53.8736 78.9417 53.5145 78.9417 53.1473ZM73.9008 58.3745C76.0581 59.009 79.2846 58.9469 79.9543 63.5397C81.2314 59.9108 79.6437 56.2847 73.9008 58.3745Z" fill="#F8F8F8"/>
<path d="M155.625 0C153.068 0 151.246 1.44992 149.134 3.12933C146.226 5.44056 142.241 8.60769 136.579 8.60769C133.436 8.60769 129.994 6.35587 127.224 4.54685C124.583 2.81883 122.304 1.33111 119.626 1.33111C117.131 1.33111 113.894 2.82423 112.981 7.03357C111.742 12.7441 115.619 18.6302 118.035 21.6299C118.972 22.7936 120.06 23.9735 121.257 25.0887C107.873 29.5221 77.4081 36.2506 15.8043 36.2506C4.99066 36.2506 1.08102 46.7321 0.511316 52.34C0.395215 53.3094 -0.598396 61.9872 0.543716 69.2584C4.49116 94.5118 24.4363 121.501 68.5736 121.501C70.2557 121.501 71.8488 121.485 73.3824 121.455C75.9528 126.523 79.3953 130.133 82.5895 129.412C85.3165 128.794 87.3145 125.136 88.4485 120.432C89.8392 120.241 91.2232 120.006 92.5985 119.725C96.2921 127.935 102.013 135.001 109.106 135.001C109.865 135.001 110.621 134.918 111.356 134.75C121.853 132.38 125.39 114.7 124.235 101.256C142.02 83.7144 146.718 43.7918 147.744 31.7037C160.296 25.8204 162 16.1867 162 8.25669C162 0.596705 157.121 0 155.625 0ZM68.5736 116.101C24.7468 116.101 9.0623 88.7958 5.87627 68.4214C4.79626 61.5417 5.87627 52.9395 5.87627 52.9395V52.9341C7.07238 52.9071 8.2685 52.8774 9.46191 52.8558C9.53211 61.0611 10.9334 69.4663 13.9683 77.1614C17.0085 85.0023 21.7902 92.1439 27.8815 97.7869C33.9458 103.47 41.1926 107.661 48.804 110.545C56.4289 113.45 64.4183 115.145 72.4374 116.072C71.1873 116.085 69.929 116.101 68.5736 116.101ZM72.4401 116.066C64.4723 114.746 56.6152 112.664 49.2522 109.435C41.8947 106.227 35.0609 101.791 29.5258 96.0697C23.9801 90.3618 19.7977 83.473 17.292 75.9194C14.7837 68.4889 13.8549 60.6777 14.1708 52.7829C16.8836 52.7554 19.5968 52.7806 22.3086 52.8585C21.9927 62.1789 24.169 71.4427 28.3081 79.6049C32.5501 87.9394 38.7627 95.1123 46.4064 100.5C53.9368 105.847 62.5958 109.335 71.487 111.147C77.5998 112.416 83.8153 112.856 90.0145 112.772C90.1955 113.38 90.3953 113.987 90.6005 114.597C85.8943 115.469 80.127 115.95 72.4401 116.066ZM42.8856 79.9613C47.5728 87.9858 54.3148 94.6225 62.1044 99.3286C69.8939 104.048 78.7635 106.851 87.7438 107.383C88.0597 107.402 88.3756 107.391 88.6969 107.404C89.0047 109.014 89.407 110.69 89.9038 112.399C83.7694 112.205 77.6673 111.49 71.7435 109.986C63.0737 107.815 54.8062 104.027 47.805 98.5753C40.793 93.151 35.123 86.0526 31.4941 78.0389C27.9463 70.2142 26.3371 61.5336 26.9986 53.0799C30.0118 53.2662 33.0116 53.5443 35.9897 53.9493C35.8734 63.0865 38.258 72.0817 42.8856 79.9613ZM40.6526 54.7188C41.1386 54.8079 41.6273 54.8808 42.1106 54.9834C44.5407 55.464 46.9167 56.1255 49.263 56.8815C49.3008 69.3502 56.7772 82.7883 68.8058 91.9657C74.5088 96.3334 81.0248 99.5212 87.9733 101.343C88.0327 102.636 88.1434 103.986 88.3567 105.441C88.3945 105.703 88.4512 105.979 88.4944 106.246C88.2784 106.225 88.057 106.222 87.8383 106.198C79.0811 105.259 70.6824 102.21 63.3626 97.3117C56.1022 92.4652 50.0109 85.869 45.9771 78.209C42.1419 70.9929 40.3037 62.8833 40.6526 54.7188ZM142.598 27.9939C142.365 34.6495 138.656 75.2714 123.122 94.4119C121.762 96.1162 120.232 97.6758 118.557 99.0721C120.36 111.444 117.034 127.933 110.17 129.485C109.819 129.561 109.466 129.601 109.106 129.601C102.521 129.601 95.4119 116.393 93.6974 104.656C93.4274 102.822 93.3221 101.143 93.3329 99.5824C92.1935 99.4717 91.1756 99.3124 90.2765 99.1396C83.0726 97.4926 76.3078 94.3137 70.442 89.8191C59.3692 81.368 52.3924 69.1936 51.9982 57.8103C54.4498 58.7067 56.8798 59.703 59.2774 60.8181C62.0747 62.0169 64.8962 63.5803 68.1821 63.8773C71.5194 64.0825 74.4759 62.4031 76.7898 60.4293C74.1627 61.9845 71.2062 63.2887 68.309 62.7136C65.4335 62.2464 62.7983 60.594 60.0766 59.1684C54.6074 56.1269 48.7095 53.9303 42.5832 52.6532C36.4806 51.4338 30.2601 50.9067 24.0394 51.0818C17.9346 51.2114 11.8595 51.8108 5.87627 52.9044C5.92217 52.4777 7.13988 41.6587 15.7962 41.6587C111.769 41.6587 133.48 25.6422 133.48 25.6422C127.116 25.6422 116.953 14.1562 118.246 8.18648C118.47 7.15237 118.94 6.73657 119.615 6.73657C122.447 6.73657 128.927 14.0131 136.568 14.0131C147.49 14.0131 153.438 5.40546 155.617 5.40546C156.289 5.40006 156.6 6.19386 156.6 8.25939C156.6 16.9994 154.27 23.7467 142.598 27.9939Z" fill="#F8F8F8"/>
</svg>
