<svg width="33" height="33" viewBox="0 0 33 33" fill="none" xmlns="http://www.w3.org/2000/svg">
<rect width="33" height="33" rx="16.5" fill="#B7B7B7"/>
<path fill-rule="evenodd" clip-rule="evenodd" d="M18.059 20.7098C17.0248 21.4227 15.7711 21.8401 14.42 21.8401C10.8743 21.8401 8 18.9657 8 15.42C8 11.8743 10.8743 9 14.42 9C17.9657 9 20.8401 11.8743 20.8401 15.42C20.8401 16.7711 20.4227 18.0248 19.7098 19.059L24 23.3492L22.3492 25L18.059 20.7098ZM14.4196 19.5065C16.676 19.5065 18.5051 17.6773 18.5051 15.421C18.5051 13.1646 16.676 11.3355 14.4196 11.3355C12.1633 11.3355 10.3341 13.1646 10.3341 15.421C10.3341 17.6773 12.1633 19.5065 14.4196 19.5065Z" fill="white"/>
</svg>
