<svg width="11" height="21" viewBox="0 0 11 21" fill="none" xmlns="http://www.w3.org/2000/svg">
<path d="M0.282423 18.3245C0.192205 18.4199 0.121675 18.5322 0.0748596 18.655C0.0280441 18.7777 0.0058596 18.9085 0.00957394 19.0398C0.0132883 19.1711 0.0428284 19.3003 0.0965071 19.4202C0.150186 19.5401 0.226952 19.6483 0.322423 19.7385C0.417894 19.8287 0.530201 19.8992 0.652929 19.946C0.775658 19.9928 0.906405 20.015 1.03771 20.0113C1.16901 20.0076 1.29829 19.9781 1.41818 19.9244C1.53807 19.8707 1.64621 19.7939 1.73642 19.6985L10.2364 10.6985C10.412 10.5128 10.5098 10.267 10.5098 10.0115C10.5098 9.75596 10.412 9.51014 10.2364 9.32447L1.73642 0.323469C1.6468 0.225908 1.53869 0.147126 1.41836 0.0917015C1.29803 0.0362769 1.16789 0.00531418 1.0355 0.000610352C0.903103 -0.00409348 0.771093 0.017557 0.647137 0.0643024C0.52318 0.111048 0.409747 0.181956 0.313426 0.272911C0.217105 0.363866 0.139817 0.473053 0.086051 0.59413C0.0322848 0.715206 0.0031124 0.84576 0.000227928 0.978207C-0.00265654 1.11065 0.0208042 1.24235 0.0692482 1.36566C0.117692 1.48896 0.190154 1.60141 0.282423 1.69647L8.13442 10.0115L0.282423 18.3245Z" fill="white"/>
</svg>
