<svg width="24" height="21" viewBox="0 0 24 21" fill="none" xmlns="http://www.w3.org/2000/svg">
<path d="M5.09859 6.27378L6.94151 5.77582C7.08673 5.73662 7.23928 5.72306 7.39044 5.7359C7.54161 5.74873 7.68843 5.78772 7.82252 5.85064C7.95661 5.91356 8.07535 5.99917 8.17195 6.10258C8.26856 6.206 8.34114 6.3252 8.38555 6.45337C8.42996 6.58154 8.44533 6.71618 8.43078 6.8496C8.41624 6.98301 8.37206 7.11259 8.30077 7.23094C8.22949 7.34929 8.13249 7.45408 8.01531 7.53935C7.89814 7.62461 7.76308 7.68866 7.61786 7.72786L3.19556 8.92174C3.05026 8.96094 2.89763 8.97449 2.7464 8.9616C2.59517 8.94871 2.4483 8.90964 2.31418 8.84662C2.18007 8.78359 2.06135 8.69786 1.9648 8.59432C1.86826 8.49077 1.79578 8.37145 1.75152 8.24317L0.398819 4.34011C0.354409 4.21193 0.339038 4.07729 0.353583 3.94388C0.368129 3.81046 0.412306 3.68088 0.483592 3.56254C0.554879 3.44419 0.651878 3.33939 0.769053 3.25413C0.886227 3.16887 1.02128 3.10481 1.16651 3.06562C1.4598 2.98646 1.77671 3.01337 2.04752 3.14044C2.31833 3.2675 2.52086 3.48431 2.61055 3.74317L3.11925 5.21357C5.90328 1.42888 11.4262 -0.198671 16.3295 1.5748C17.7958 2.10527 19.1127 2.91291 20.1873 3.94088C21.262 4.96885 22.0683 6.19218 22.5496 7.5248C22.599 7.65317 22.6188 7.78893 22.6081 7.92416C22.5973 8.05938 22.5561 8.19135 22.4869 8.31237C22.4177 8.43338 22.3219 8.54102 22.205 8.62899C22.0881 8.71695 21.9526 8.78348 21.8063 8.8247C21.66 8.86592 21.5058 8.88099 21.3528 8.86904C21.1998 8.85708 21.051 8.81835 20.9152 8.75509C20.7794 8.69183 20.6592 8.60532 20.5616 8.5006C20.4641 8.39589 20.3912 8.27507 20.3471 8.14521C19.8587 6.7915 18.9464 5.58734 17.7156 4.67174C16.4848 3.75614 14.9857 3.16645 13.3913 2.97077C11.797 2.77508 10.1724 2.98138 8.70528 3.56583C7.23811 4.15029 5.98701 5.08907 5.09859 6.27378ZM19.3505 14.636L17.2984 15.0881C17.1498 15.124 16.9945 15.1334 16.8418 15.1157C16.689 15.0979 16.5418 15.0534 16.4088 14.9848C16.2758 14.9161 16.1597 14.8246 16.0673 14.7158C15.9749 14.607 15.9081 14.4829 15.8708 14.351C15.8335 14.219 15.8265 14.0819 15.8501 13.9475C15.8738 13.8131 15.9276 13.6842 16.0084 13.5685C16.0893 13.4527 16.1956 13.3524 16.321 13.2734C16.4464 13.1944 16.5885 13.1383 16.7388 13.1085L20.9506 12.1809C21.1701 12.0888 21.4169 12.0602 21.6559 12.0993C21.8861 12.126 22.1019 12.2133 22.2751 12.3498C22.4484 12.4863 22.571 12.6657 22.6271 12.8646L23.7462 16.8238C23.8125 17.0838 23.7609 17.3564 23.6024 17.5833C23.4439 17.8102 23.1912 17.9733 22.8981 18.0379C22.6051 18.1024 22.2951 18.0631 22.0345 17.9286C21.7738 17.794 21.5832 17.5747 21.5033 17.3177L21.1218 15.9687C20.0086 17.3825 18.4839 18.5052 16.7085 19.2185C14.933 19.9318 12.9725 20.2092 11.0333 20.0216C9.09421 19.834 7.24831 19.1883 5.69009 18.1525C4.13187 17.1167 2.91902 15.7291 2.1793 14.136L1.8787 13.4891C1.82116 13.3651 1.79185 13.2323 1.79246 13.0982C1.79307 12.9642 1.82359 12.8316 1.88226 12.708C1.94093 12.5844 2.02661 12.4722 2.13441 12.3778C2.24221 12.2835 2.37002 12.2088 2.51054 12.158C2.79433 12.0554 3.11266 12.0565 3.3955 12.1611C3.53555 12.2129 3.66267 12.2885 3.76961 12.3837C3.87654 12.4788 3.9612 12.5916 4.01874 12.7156L4.31934 13.3615C4.90869 14.6307 5.87957 15.7338 7.1272 16.5517C8.37483 17.3696 9.85184 17.8712 11.3988 18.0025C12.9458 18.1338 14.5041 17.8897 15.9054 17.2966C17.3068 16.7035 18.498 15.7829 19.3505 14.636Z" fill="#F8F8F8"/>
</svg>
