<svg width="100" height="100" viewBox="0 0 100 100" fill="none" xmlns="http://www.w3.org/2000/svg">
<path d="M50.0708 3.125H37.4292M43.75 3.125V13.9583M19.4917 10.5542L15.025 15.025M15.025 15.025L10.5542 19.4917M15.025 15.025L22.6833 22.6833M3.125 37.4292V50.0708M3.125 43.75H13.9583M10.5542 68.0083L15.025 72.475M15.025 72.475L19.4917 76.9458M15.025 72.475L22.6833 64.8167M76.9458 19.4917L72.475 15.025M72.475 15.025L68.0083 10.5542M72.475 15.025L64.8167 22.6833M37.4292 41.0417C39.1056 41.0417 40.7133 40.3757 41.8987 39.1903C43.0841 38.005 43.75 36.3972 43.75 34.7208C43.75 33.0444 43.0841 31.4367 41.8987 30.2513C40.7133 29.0659 39.1056 28.4 37.4292 28.4C35.7528 28.4 34.1451 29.0659 32.9597 30.2513C31.7743 31.4367 31.1083 33.0444 31.1083 34.7208C31.1083 36.3972 31.7743 38.005 32.9597 39.1903C34.1451 40.3757 35.7528 41.0417 37.4292 41.0417Z" stroke="black" stroke-width="1.5" stroke-linecap="round" stroke-linejoin="round"/>
<path d="M72.6458 36.4787C71.3739 31.414 68.7931 26.7726 65.1621 23.0197C61.5311 19.2668 56.9774 16.5342 51.9574 15.0958C46.9374 13.6574 41.6276 13.5638 36.5601 14.8243C31.4925 16.0848 26.8453 18.6552 23.0842 22.2778C19.3232 25.9004 16.5803 30.4479 15.1307 35.4646C13.681 40.4813 13.5755 45.791 14.8246 50.8613C16.0737 55.9317 18.6336 60.5847 22.2477 64.3539C25.8619 68.1231 30.4032 70.8761 35.4167 72.3371" stroke="black" stroke-width="1.5" stroke-linecap="round" stroke-linejoin="round"/>
<path d="M82.1739 82.1739C80.2819 84.0659 78.0358 85.5667 75.5638 86.5906C73.0918 87.6146 70.4423 88.1416 67.7666 88.1416C62.3628 88.1416 57.1804 85.995 53.3593 82.1739C49.5382 78.3528 47.3916 73.1704 47.3916 67.7666C47.3916 62.3628 49.5382 57.1804 53.3593 53.3593C57.1804 49.5382 62.3628 47.3916 67.7666 47.3916C70.4423 47.3916 73.0918 47.9186 75.5638 48.9426C78.0358 49.9665 80.2819 51.4673 82.1739 53.3593C84.0659 55.2513 85.5667 57.4974 86.5906 59.9694C87.6146 62.4414 88.1416 65.0909 88.1416 67.7666C88.1416 70.4423 87.6146 73.0918 86.5906 75.5638C85.5667 78.0358 84.0659 80.2819 82.1739 82.1739ZM82.1739 82.1739L96.8749 96.8749" stroke="black" stroke-width="1.5" stroke-linecap="round" stroke-linejoin="round"/>
</svg>
