<svg width="130" height="130" viewBox="0 0 130 130" fill="none" xmlns="http://www.w3.org/2000/svg">
<path d="M64.6615 108.125L64.9323 32.0477M64.9323 32.0477C77.7888 27.8661 90.7806 22.0377 103.307 21.8779L103.171 92.1186C90.1252 93.3779 77.1415 95.0923 64.8077 101.335M64.9323 32.0477C52.5715 28.4781 42.1633 23.1996 27.235 21.8779L27.0996 90.7617M20.4561 30.1546L21.1331 96.5981" stroke="black" stroke-linecap="round" stroke-linejoin="round"/>
<path d="M27.0996 90.7618C42.2338 91.9779 53.0996 97.0343 64.8077 101.335M21.1331 96.5983C37.9221 96.6308 51.5748 100.742 64.7969 105.411C79.0559 100.221 94.0994 97.5152 109.273 97.4108L109.815 30.6964L103.288 30.8291M20.4561 30.1547L27.2161 31.1054M80.8221 26.5635L81.6102 49.9472L77.4069 45.6058L73.339 50.4889L72.8027 29.3476" stroke="black" stroke-linecap="round" stroke-linejoin="round"/>
<path d="M109.769 36.2376L115.104 36.1211V104.869C97.4674 103.299 81.797 106.819 64.6614 108.125C48.2557 105.095 31.5682 103.867 14.8958 104.46V36.6628L20.521 36.6546" stroke="black" stroke-linecap="round" stroke-linejoin="round"/>
</svg>
