<svg width="131" height="130" viewBox="0 0 131 130" fill="none" xmlns="http://www.w3.org/2000/svg">
<path d="M38.0862 97.5V92.0833C38.0862 84.9004 40.9396 78.0116 46.0187 72.9325C51.0978 67.8534 57.9866 65 65.1695 65M65.1695 65C72.3525 65 79.2412 67.8534 84.3203 72.9325C89.3994 78.0116 92.2529 84.9004 92.2529 92.0833V97.5M65.1695 65C69.4793 65 73.6125 63.288 76.66 60.2405C79.7075 57.193 81.4195 53.0598 81.4195 48.75C81.4195 44.4402 79.7075 40.307 76.66 37.2595C73.6125 34.212 69.4793 32.5 65.1695 32.5C60.8598 32.5 56.7265 34.212 53.679 37.2595C50.6316 40.307 48.9195 44.4402 48.9195 48.75C48.9195 53.0598 50.6316 57.193 53.679 60.2405C56.7265 63.288 60.8598 65 65.1695 65ZM5.58618 97.5V92.0833C5.58618 87.7736 7.29823 83.6403 10.3457 80.5928C13.3932 77.5454 17.5264 75.8333 21.8362 75.8333M21.8362 75.8333C24.7094 75.8333 27.4649 74.692 29.4965 72.6603C31.5282 70.6287 32.6695 67.8732 32.6695 65C32.6695 62.1268 31.5282 59.3713 29.4965 57.3397C27.4649 55.308 24.7094 54.1667 21.8362 54.1667C18.963 54.1667 16.2075 55.308 14.1759 57.3397C12.1442 59.3713 11.0028 62.1268 11.0028 65C11.0028 67.8732 12.1442 70.6287 14.1759 72.6603C16.2075 74.692 18.963 75.8333 21.8362 75.8333ZM124.753 97.5V92.0833C124.753 87.7736 123.041 83.6403 119.993 80.5928C116.946 77.5454 112.813 75.8333 108.503 75.8333M108.503 75.8333C111.376 75.8333 114.132 74.692 116.163 72.6603C118.195 70.6287 119.336 67.8732 119.336 65C119.336 62.1268 118.195 59.3713 116.163 57.3397C114.132 55.308 111.376 54.1667 108.503 54.1667C105.63 54.1667 102.874 55.308 100.843 57.3397C98.8109 59.3713 97.6695 62.1268 97.6695 65C97.6695 67.8732 98.8109 70.6287 100.843 72.6603C102.874 74.692 105.63 75.8333 108.503 75.8333Z" stroke="black" stroke-width="1.5" stroke-linecap="round" stroke-linejoin="round"/>
</svg>
