<svg width="101" height="100" viewBox="0 0 101 100" fill="none" xmlns="http://www.w3.org/2000/svg">
<path d="M71.0028 86.1625C74.7921 86.1625 78.4262 84.6572 81.1056 81.9778M71.0028 86.1625C67.2136 86.1625 63.5795 84.6572 60.9001 81.9778M71.0028 86.1625V96.875M81.1056 81.9778C83.7851 79.2984 85.2903 75.6643 85.2903 71.875M81.1056 81.9778L88.682 89.5542M85.2903 71.875C85.2903 68.0857 83.7851 64.4516 81.1056 61.7722M85.2903 71.875H96.0028M81.1056 61.7722C78.4262 59.0928 74.7921 57.5875 71.0028 57.5875M81.1056 61.7722L88.682 54.1958M71.0028 57.5875C67.2136 57.5875 63.5795 59.0928 60.9001 61.7722M71.0028 57.5875V46.875M60.9001 61.7722C58.2206 64.4516 56.7153 68.0857 56.7153 71.875M60.9001 61.7722L53.3237 54.1958M56.7153 71.875C56.7153 75.6643 58.2206 79.2984 60.9001 81.9778M56.7153 71.875H46.0028M60.9001 81.9778L53.3237 89.5542M68.6237 46.875H73.382M86.9987 52.5125L90.3653 55.8792M96.0028 69.4958V74.2542M90.3653 87.8708L86.9987 91.2375M73.382 96.875H68.6237M55.007 91.2375L51.6403 87.8708M46.0028 74.2542V69.4958M51.6403 55.8792L55.007 52.5125M39.957 92.7083C37.7277 94.7758 34.9437 96.148 31.9461 96.6567C28.9485 97.1653 25.8677 96.7884 23.0811 95.5721C20.2946 94.3557 17.9235 92.3528 16.2584 89.8089C14.5933 87.2649 13.7066 84.2904 13.707 81.25V3.125H44.957V42.7083M54.3362 3.125H4.33618" stroke="black" stroke-width="1.5" stroke-linecap="round" stroke-linejoin="round"/>
<path d="M44.9612 21.875H13.7112M34.0237 34.375C34.4381 34.375 34.8355 34.5396 35.1285 34.8326C35.4216 35.1257 35.5862 35.5231 35.5862 35.9375C35.5862 36.3519 35.4216 36.7493 35.1285 37.0424C34.8355 37.3354 34.4381 37.5 34.0237 37.5C33.6093 37.5 33.2119 37.3354 32.9188 37.0424C32.6258 36.7493 32.4612 36.3519 32.4612 35.9375C32.4612 35.5231 32.6258 35.1257 32.9188 34.8326C33.2119 34.5396 33.6093 34.375 34.0237 34.375ZM24.6487 53.125C25.0631 53.125 25.4605 53.2896 25.7535 53.5826C26.0466 53.8757 26.2112 54.2731 26.2112 54.6875C26.2112 55.1019 26.0466 55.4993 25.7535 55.7924C25.4605 56.0854 25.0631 56.25 24.6487 56.25C24.2343 56.25 23.8369 56.0854 23.5438 55.7924C23.2508 55.4993 23.0862 55.1019 23.0862 54.6875C23.0862 54.2731 23.2508 53.8757 23.5438 53.5826C23.8369 53.2896 24.2343 53.125 24.6487 53.125ZM30.8987 71.875C31.3131 71.875 31.7105 72.0396 32.0035 72.3326C32.2966 72.6257 32.4612 73.0231 32.4612 73.4375C32.4612 73.8519 32.2966 74.2493 32.0035 74.5424C31.7105 74.8354 31.3131 75 30.8987 75C30.4843 75 30.0869 74.8354 29.7938 74.5424C29.5008 74.2493 29.3362 73.8519 29.3362 73.4375C29.3362 73.0231 29.5008 72.6257 29.7938 72.3326C30.0869 72.0396 30.4843 71.875 30.8987 71.875Z" stroke="black" stroke-width="1.5" stroke-linecap="round" stroke-linejoin="round"/>
</svg>
