<svg width="131" height="130" viewBox="0 0 131 130" fill="none" xmlns="http://www.w3.org/2000/svg">
<path d="M73.3191 70.2188C69.4733 76.4913 63.4472 80.1801 57.0501 80.1801C50.6531 80.1801 44.627 76.4913 40.7785 70.2188M55.7556 107.456C31.952 106.757 13.0181 87.2407 13.0181 63.4074C13.0181 39.0703 32.732 19.3428 57.0474 19.3428C75.8893 19.3428 92.6431 31.3407 98.7233 49.1886M103.596 54.933L118.643 69.9913L78.1697 110.503L62.9679 110.657L63.1222 95.4388L103.596 54.933ZM47.3245 53.9526C47.3245 56.3901 45.3474 58.3672 42.9126 58.3672C41.7418 58.3672 40.619 57.902 39.7911 57.0741C38.9632 56.2463 38.4981 55.1234 38.4981 53.9526C38.4981 52.7817 38.9632 51.6589 39.7911 50.831C40.619 50.0031 41.7418 49.538 42.9126 49.538C45.3501 49.538 47.3245 51.5151 47.3245 53.9526ZM75.5968 53.9526C75.5968 56.3901 73.6197 58.3672 71.1849 58.3672C70.0141 58.3672 68.8913 57.902 68.0634 57.0741C67.2355 56.2463 66.7704 55.1234 66.7704 53.9526C66.7704 52.7817 67.2355 51.6589 68.0634 50.831C68.8913 50.0031 70.0141 49.538 71.1849 49.538C73.6224 49.538 75.5968 51.5151 75.5968 53.9526Z" stroke="black" stroke-linecap="round" stroke-linejoin="round"/>
</svg>
