<svg width="102" height="102" viewBox="0 0 102 102" fill="none" xmlns="http://www.w3.org/2000/svg">
<path d="M24.2618 38.931C27.8128 38.931 31.2185 37.4778 33.7294 34.8911M24.2618 38.931C20.7107 38.931 17.3051 37.4778 14.7941 34.8911M24.2618 38.931V49.2759M33.7294 34.8911C36.2404 32.3044 37.6511 28.7961 37.6511 25.1379M33.7294 34.8911L40.8288 42.2046M37.6511 25.1379C37.6511 21.4798 36.2404 17.9714 33.7294 15.3847M37.6511 25.1379H47.693M33.7294 15.3847C31.2185 12.798 27.8128 11.3448 24.2618 11.3448M33.7294 15.3847L40.8288 8.07126M24.2618 11.3448C20.7107 11.3448 17.3051 12.798 14.7941 15.3847M24.2618 11.3448V1M14.7941 15.3847C12.2832 17.9714 10.8725 21.4798 10.8725 25.1379M14.7941 15.3847L7.6948 8.07126M10.8725 25.1379C10.8725 28.7961 12.2832 32.3044 14.7941 34.8911M10.8725 25.1379H0.830566M14.7941 34.8911L7.6948 42.2046M22.0302 1H26.4933M39.2533 6.44368L42.4087 9.69425M47.693 22.8391V27.4368M42.4087 40.5816L39.2533 43.8322M26.4933 49.2759H22.0302M9.27027 43.8322L6.11487 40.5816M0.830566 27.4368V22.8391M6.11487 9.69425L9.27027 6.44368M78.2607 37.6667C81.169 40.2074 83.53 43.3461 85.1924 46.8815C86.8547 50.4169 87.7818 54.2711 87.9142 58.197C88.0465 62.123 87.3813 66.0341 85.961 69.6798C84.5407 73.3255 82.3968 76.6253 79.6666 79.3678C74.331 84.7331 67.1705 87.7365 59.7144 87.7365C52.2582 87.7365 45.0977 84.7331 39.7621 79.3678C36.5652 76.1449 34.1786 72.1681 32.8086 67.7816" stroke="black" stroke-width="1.5" stroke-linecap="round" stroke-linejoin="round"/>
<path d="M69.3569 46.6505C68.5954 47.418 67.5725 47.8477 66.5072 47.8477C65.4419 47.8477 64.419 47.418 63.6575 46.6505L57.9716 40.885C57.5977 40.5101 57.3006 40.0619 57.0977 39.5667C56.8948 39.0716 56.7903 38.5396 56.7903 38.0022C56.7903 37.4648 56.8948 36.9328 57.0977 36.4377C57.3006 35.9425 57.5977 35.4943 57.9716 35.1194L75.0741 17.8137C75.8367 17.0484 76.8592 16.6201 77.9238 16.6201C78.9884 16.6201 80.0109 17.0484 80.7735 17.8137L86.4729 23.5838C86.8467 23.9587 87.1438 24.4069 87.3467 24.902C87.5496 25.3972 87.6541 25.9291 87.6541 26.4666C87.6541 27.004 87.5496 27.536 87.3467 28.0311C87.1438 28.5262 86.8467 28.9745 86.4729 29.3493L69.3569 46.6505Z" stroke="black" stroke-width="1.5" stroke-linecap="round" stroke-linejoin="round"/>
<path d="M82.822 19.9017L94.3814 7.9845M94.3814 7.9845L87.9322 1.34082M94.3814 7.9845L100.831 14.6282M23.146 67.7822H45.7203M26.6629 101.001H87.9322M58.9087 87.7132V101.001" stroke="black" stroke-width="1.5" stroke-linecap="round" stroke-linejoin="round"/>
</svg>
