<svg width="131" height="130" viewBox="0 0 131 130" fill="none" xmlns="http://www.w3.org/2000/svg">
<path d="M65.538 41.6728V18.327M65.538 11.3476V6.77051M81.3817 13.322L79.5997 18.9201M77.7878 24.3151L72.0922 41.7893M83.3886 38.7153L81.0161 41.7297M105.527 34.2655L87.164 47.9399M87.2615 56.6878L96.8436 53.4893M103.861 51.3524L118.564 46.3934M87.2615 64.9049H110.613M118.058 64.9049H124.062M87.2615 71.3778L93.0411 73.0624M98.5336 75.0043L112.609 79.8332M86.3028 34.6501L99.7957 16.0763M65.538 87.3922V94.4745M65.538 100.769V123.229M57.7624 87.3922L52.7249 103.672M51.0376 109.424L49.2799 114.92M72.7395 87.1457L76.1113 97.7597M77.7011 103.217L82.4028 117.869M80.8265 86.0109L98.1409 109.953M86.9934 80.0255L97.3338 88.1288M103.517 92.3105L110.372 97.6188M49.4776 86.3603L46.1003 90.6259M42.1597 96.8822L30.8118 112.141M19.4638 97.7786L17.7847 99.1111M43.6682 79.7086L25.3301 93.9003M43.0832 71.4157L34.0753 74.5222M27.0309 76.7484L12.6768 81.7643M43.0832 64.9049H27.4345M21.487 64.9049H7.59863M54.7209 30.9722L58.1361 41.6701M49.242 13.4059L52.817 24.6401M32.1578 17.6986L49.5913 42.5286M19.9378 30.5632L26.5922 35.8391M32.2959 40.1561L43.1997 48.4111M17.8172 48.8363L31.4347 53.2591M37.4688 55.2334L43.0832 57.0399" stroke="black" stroke-linecap="round" stroke-linejoin="round"/>
</svg>
