<svg width="131" height="130" viewBox="0 0 131 130" fill="none" xmlns="http://www.w3.org/2000/svg">
<path d="M25.0781 55.7047C26.6841 56.3927 28.2604 57.0725 29.9368 57.652M33.8314 107.583C28.0897 100.612 29.0539 90.0599 22.0041 83.9093C18.8679 80.3641 19.3364 75.2643 20.1895 70.9581C20.6662 63.8514 14.3341 58.2072 14.085 51.0031M50.9589 14.7683C50.4497 24.0172 38.3462 18.3974 36.5072 26.6281C38.8039 29.0331 41.886 26.6741 43.8306 25.6314C53.6672 25.9835 48.9493 34.9535 41.867 35.6766C37.1356 38.1818 31.245 40.7277 28.7235 45.9277C27.0741 47.2845 27.345 50.3829 24.2818 50.1852C23.0983 48.506 23.4477 42.2877 20.4604 45.3643C13.8277 49.9306 21.6791 56.7989 21.8525 62.9062C33.2437 61.877 38.8608 72.2174 47.0508 78.1081C51.422 81.6181 60.365 84.9791 53.5102 90.9618C49.9027 98.3799 39.3727 104.455 43.5841 113.373C43.5408 113.78 44.1095 113.701 43.9172 114.164M115.203 81.6966C109.727 81.2904 108.611 90.1602 109.722 94.1116M68.7337 32.321C69.1833 32.2127 69.6627 32.1097 70.0364 31.8227C70.7243 31.4083 70.616 30.2518 70.5429 29.5206C70.2179 28.9627 69.947 27.9822 69.2997 27.5868M114.266 44.4787C111.951 45.126 105.992 41.9058 108.405 45.6108C108.793 48.1214 110.951 48.7091 112.159 49.5622C113.061 51.3741 113.665 55.9566 111.19 56.8829C109.616 56.9397 101.361 48.5331 103.652 53.4704C104.096 56.6743 106.515 59.2283 108.468 61.2433C109.491 64.087 113.985 62.5947 114.155 64.7749C112.471 70.2674 108.89 74.1377 106.653 79.3241C107.049 85.1497 106.843 90.997 103.387 95.9533C87.6487 113.26 83.8327 94.7183 89.3143 80.0229C91.3131 62.5081 73.0752 77.2956 66.8893 68.5043C61.3102 62.6218 66.1906 51.8833 71.8943 47.6989C74.0068 45.3887 77.6658 45.2912 80.5339 46.2499C86.3081 47.187 94.5252 46.7374 99.5735 43.7881C99.2377 42.0087 96.2693 40.121 94.2489 39.9368C93.9158 38.0708 98.6445 37.4181 95.5354 35.8445C92.0064 35.5385 92.0118 42.3337 88.7185 38.7614C87.9466 36.4079 82.8089 36.416 85.8314 38.932C85.9668 41.6566 86.2025 43.4604 84.4637 40.5299C79.846 38.0654 75.5045 43.455 71.2904 44.0995C67.2225 39.387 77.357 29.591 81.75 28.0824C84.6045 25.6639 77.72 21.8993 79.3666 26.322C78.221 29.1956 72.1029 27.1833 74.8925 24.372C75.6454 21.6556 77.7633 19.7868 80.0491 18.9635C82.8983 19.2533 84.1062 19.1124 84.136 15.9627M57.161 14.1589C56.9281 16.0141 57.9058 17.7772 57.7027 19.6324C57.7027 21.2791 53.5968 24.2231 56.0181 24.9841C58.545 25.8372 60.4056 24.8541 61.9222 22.8527C64.6766 20.732 67.1493 18.5518 66.7079 14.6464C66.3531 14.5191 65.8358 14.4216 65.9279 14.1914C63.3008 12.1439 60.0562 13.0377 57.161 14.1589ZM118.618 64.9997C118.618 94.5206 94.6904 118.449 65.1695 118.449C35.6487 118.449 11.7206 94.5206 11.7206 64.9997C11.7206 35.4789 35.6487 11.5508 65.1695 11.5508C94.6904 11.5508 118.618 35.4789 118.618 64.9997Z" stroke="black" stroke-linecap="round" stroke-linejoin="round"/>
</svg>
