<svg width="130" height="130" viewBox="0 0 130 130" fill="none" xmlns="http://www.w3.org/2000/svg">
<path d="M116.183 69.2992C116.183 80.3185 112.915 91.0903 106.793 100.252C100.671 109.415 91.9698 116.556 81.7894 120.773C71.6089 124.989 60.4066 126.093 49.5991 123.943C38.7916 121.793 28.8643 116.487 21.0725 108.695C13.2807 100.903 7.97446 90.9761 5.82471 80.1686C3.67496 69.361 4.77829 58.1588 8.99517 47.9783C13.2121 37.7979 20.3531 29.0965 29.5153 22.9745C38.6774 16.8525 49.4492 13.585 60.4685 13.585M4.75418 69.2992H69.0392" stroke="black" stroke-linecap="round" stroke-linejoin="round"/>
<path d="M60.4685 13.585C47.596 29.4131 40.0905 48.9247 39.0371 69.2992C40.0905 89.6738 47.596 109.185 60.4685 125.014C70.5586 112.605 77.3949 97.8761 80.3585 82.16" stroke="black" stroke-linecap="round" stroke-linejoin="round"/>
<path d="M68.7512 36.8644C65.5012 36.3072 65.5012 31.6272 68.7512 31.0608C74.5238 30.0581 79.8669 27.3586 84.0991 23.3068C88.3312 19.2549 91.2605 14.0343 92.5134 8.31079L92.6991 7.41007C93.4141 4.18793 97.9919 4.16007 98.7348 7.38222L98.9669 8.4315C100.268 14.1291 103.224 19.3152 107.463 23.3381C111.702 27.3609 117.036 30.0413 122.794 31.0422C126.063 31.6086 126.063 36.3165 122.794 36.8922C117.036 37.8932 111.702 40.5735 107.463 44.5964C103.224 48.6193 100.268 53.8053 98.9669 59.5029L98.7348 60.5429C97.9919 63.7558 93.4141 63.7372 92.6991 60.5151L92.5134 59.6236C91.2605 53.9001 88.3312 48.6795 84.0991 44.6276C79.8669 40.5758 74.5238 37.8671 68.7512 36.8644Z" stroke="black" stroke-linecap="round" stroke-linejoin="round"/>
</svg>
